<svg version="1.1" xmlns="http://www.w3.org/2000/svg" xmlns:xlink="http://www.w3.org/1999/xlink" role="img" width="314" height="90" viewbox="0 0 314 90"><title>WallGuide</title><desc>Generated by logo.svg, https://github.com/bubkoo/logo.svg</desc><path fill="#2b68a7" d="M14.70 70.35L11.37 30.74Q11.18 28.75 10.28 28.05Q9.38 27.34 7.53 27.34L6.70 27.34L7.27 24.66L24.68 24.66L24.10 27.34L22.63 27.34Q20.58 27.34 19.30 28.21Q18.02 29.07 18.02 30.61Q18.02 31.12 18.06 31.73Q18.09 32.34 18.15 32.78L19.69 53.26Q19.94 56.14 20.04 58.96Q20.14 61.78 20.14 64.08Q21.22 61.58 22.54 58.61Q23.85 55.63 25.38 52.56L38.82 25.10L43.43 25.10L45.54 52.82Q45.80 56.02 45.86 58.96Q45.93 61.90 45.86 64.08Q46.89 61.78 48.01 59.22Q49.13 56.66 50.66 53.58L60.84 33.23Q61.42 32.02 61.74 31.15Q62.06 30.29 62.06 29.65Q62.06 27.34 58.47 27.34L56.94 27.34L57.45 24.66L73.06 24.66L72.49 27.34L71.27 27.34Q69.42 27.34 68.20 28.24Q66.98 29.14 65.38 32.34L46.50 70.35L40.62 70.35L37.74 34.90L20.52 70.35L14.70 70.35ZM75.69 70.99Q72.87 70.99 71.02 69.46Q69.16 67.92 68.30 65.26Q67.43 62.61 67.43 59.28Q67.43 56.27 68.23 52.98Q69.03 49.68 70.63 46.58Q72.23 43.47 74.54 40.94Q76.84 38.42 79.85 36.91Q82.86 35.41 86.50 35.41Q88.81 35.41 90.76 36.05Q92.71 36.69 93.99 37.71L96.81 36.11L98.86 36.11L94.50 56.59Q94.38 57.30 94.12 58.64Q93.86 59.98 93.70 61.39Q93.54 62.80 93.54 63.70Q93.54 66.96 95.66 66.96Q96.68 66.96 97.86 66.48Q99.05 66 100.26 65.30L101.42 67.15Q100.52 67.98 98.98 68.88Q97.45 69.78 95.72 70.38Q93.99 70.99 92.39 70.99Q90.09 70.99 88.74 69.58Q87.40 68.18 87.40 65.68Q87.40 64.40 87.56 63.34Q87.72 62.29 88.04 60.69L87.66 60.69Q85.42 65.62 82.44 68.30Q79.46 70.99 75.69 70.99M77.99 66.96Q79.66 66.96 81.42 65.68Q83.18 64.40 84.74 62.22Q86.31 60.05 87.53 57.36Q88.74 54.67 89.32 51.92L91.69 40.59Q90.98 39.44 89.64 38.86Q88.30 38.29 86.82 38.29Q84.26 38.29 82.22 39.73Q80.17 41.17 78.63 43.54Q77.10 45.90 76.04 48.72Q74.98 51.54 74.47 54.38Q73.96 57.23 73.96 59.54Q73.96 63.50 75.11 65.23Q76.26 66.96 77.99 66.96ZM111.72 70.99Q109.16 70.99 107.78 69.20Q106.41 67.41 106.41 64.91Q106.41 63.57 106.66 61.71Q106.92 59.86 107.24 58Q107.56 56.14 107.82 54.86L113.06 30.29Q113.26 29.39 113.35 28.56Q113.45 27.73 113.45 27.41Q113.45 25.49 112.14 24.94Q110.82 24.40 108.97 24.40L108.20 24.40L108.78 21.71L120.87 21.71L113.45 56.59Q113.26 57.30 113.03 58.64Q112.81 59.98 112.62 61.39Q112.42 62.80 112.42 63.70Q112.42 66.96 114.54 66.96Q115.56 66.96 116.74 66.48Q117.93 66 119.14 65.30L120.30 67.15Q118.89 68.43 116.52 69.71Q114.15 70.99 111.72 70.99ZM131.18 70.99Q128.62 70.99 127.24 69.20Q125.86 67.41 125.86 64.91Q125.86 63.57 126.12 61.71Q126.38 59.86 126.70 58Q127.02 56.14 127.27 54.86L132.52 30.29Q132.71 29.39 132.81 28.56Q132.90 27.73 132.90 27.41Q132.90 25.49 131.59 24.94Q130.28 24.40 128.42 24.40L127.66 24.40L128.23 21.71L140.33 21.71L132.90 56.59Q132.71 57.30 132.49 58.64Q132.26 59.98 132.07 61.39Q131.88 62.80 131.88 63.70Q131.88 66.96 133.99 66.96Q135.02 66.96 136.20 66.48Q137.38 66 138.60 65.30L139.75 67.15Q138.34 68.43 135.98 69.71Q133.61 70.99 131.18 70.99ZM162.15 70.99Q153.13 70.99 148.55 66.38Q143.98 61.78 143.98 53.84Q143.98 47.63 145.96 42.22Q147.94 36.82 151.59 32.72Q155.24 28.62 160.30 26.32Q165.35 24.02 171.50 24.02Q178.28 24.02 181.64 26.06Q185 28.11 185 30.93Q185 33.42 182.98 34.70Q180.97 35.98 178.22 35.98Q178.22 32.21 176.30 29.81Q174.38 27.41 170.15 27.41Q166.06 27.41 162.57 29.65Q159.08 31.89 156.46 35.73Q153.83 39.57 152.39 44.50Q150.95 49.42 150.95 54.86Q150.95 60.37 153.80 63.86Q156.65 67.34 163.30 67.34Q165.10 67.34 167.08 67.09Q169.06 66.83 170.54 66.45L172.65 56.27Q172.90 55.25 172.90 54.48Q172.90 52.82 171.53 52.37Q170.15 51.92 168.30 51.92L167.72 51.92L168.30 49.23L185.32 49.23L184.74 51.92L184.49 51.92Q182.70 51.92 181.19 52.72Q179.69 53.52 179.05 56.53L176.62 68.05Q173.10 69.52 169.67 70.26Q166.25 70.99 162.15 70.99ZM215.53 70.99Q212.97 70.99 211.56 69.20Q210.15 67.41 210.15 64.91Q210.15 64.21 210.25 63.18Q210.34 62.16 210.47 61.14L209.96 61.14Q208.17 64.08 206.44 66.26Q204.71 68.43 202.60 69.68Q200.49 70.93 197.61 70.93Q193.83 70.93 192.30 68.78Q190.76 66.64 190.76 63.82Q190.76 62.22 191.14 60.34Q191.53 58.45 191.91 56.78L194.41 45.58Q194.60 44.69 194.79 43.38Q194.98 42.06 194.98 41.74Q194.98 39.82 193.67 39.28Q192.36 38.74 190.50 38.74L189.99 38.74L190.57 36.05L202.47 36.05L198.25 55.18Q197.86 56.91 197.42 59.22Q196.97 61.52 196.97 62.93Q196.97 64.53 197.61 65.68Q198.25 66.83 200.10 66.83Q201.83 66.83 203.69 65.52Q205.54 64.21 207.27 62.03Q209 59.86 210.28 57.23Q211.56 54.61 212.14 51.98L215.46 36.05L221.67 36.05L217.26 56.59Q217.06 57.30 216.84 58.64Q216.62 59.98 216.46 61.39Q216.30 62.80 216.30 63.70Q216.30 66.96 218.41 66.96Q219.50 66.96 220.39 66.61Q221.29 66.26 222.50 65.55L223.66 67.41Q222.25 68.69 220.10 69.84Q217.96 70.99 215.53 70.99ZM239.02 29.65Q237.42 29.65 236.42 28.78Q235.43 27.92 235.43 26.13Q235.43 24.14 236.49 22.90Q237.54 21.65 239.27 21.65Q240.81 21.65 241.83 22.51Q242.86 23.38 242.86 25.17Q242.86 27.66 241.64 28.66Q240.42 29.65 239.02 29.65M234.60 70.99Q232.04 70.99 230.66 69.20Q229.29 67.41 229.29 64.91Q229.29 63.57 229.54 61.71Q229.80 59.86 230.12 58Q230.44 56.14 230.70 54.86L233.19 43.09Q233.38 42.13 233.38 41.42Q233.38 39.70 232.33 39.22Q231.27 38.74 229.48 38.74L228.65 38.74L229.22 36.05L240.68 36.05L236.33 56.59Q236.20 57.30 235.94 58.64Q235.69 59.98 235.53 61.39Q235.37 62.80 235.37 63.70Q235.37 66.96 237.48 66.96Q238.50 66.96 239.69 66.48Q240.87 66 242.09 65.30L243.24 67.15Q241.83 68.43 239.40 69.71Q236.97 70.99 234.60 70.99ZM255.14 70.99Q252.33 70.99 250.47 69.46Q248.62 67.92 247.75 65.26Q246.89 62.61 246.89 59.28Q246.89 56.27 247.69 52.98Q248.49 49.68 250.09 46.58Q251.69 43.47 253.99 40.94Q256.30 38.42 259.30 36.91Q262.31 35.41 265.96 35.41Q267.82 35.41 269.42 35.86Q271.02 36.30 272.30 37.01Q272.42 36.18 272.62 35.06Q272.81 33.94 272.94 33.36L273.58 30.29Q273.77 29.39 273.90 28.59Q274.02 27.79 274.02 27.41Q274.02 25.49 272.71 24.94Q271.40 24.40 269.54 24.40L269.03 24.40L269.61 21.71L281.38 21.71L273.96 56.59Q273.83 57.30 273.58 58.64Q273.32 59.98 273.16 61.39Q273 62.80 273 63.70Q273 66.96 275.11 66.96Q276.14 66.96 277.32 66.48Q278.50 66 279.72 65.30L280.87 67.15Q279.98 67.98 278.44 68.88Q276.90 69.78 275.18 70.38Q273.45 70.99 271.85 70.99Q269.54 70.99 268.20 69.58Q266.86 68.18 266.86 65.68Q266.86 64.85 267.02 63.57Q267.18 62.29 267.50 60.69L267.11 60.69Q264.87 65.62 261.90 68.30Q258.92 70.99 255.14 70.99M257.45 66.96Q259.11 66.96 260.87 65.68Q262.63 64.40 264.20 62.22Q265.77 60.05 266.98 57.36Q268.20 54.67 268.78 51.92L271.14 40.59Q270.44 39.44 269.10 38.86Q267.75 38.29 266.28 38.29Q263.72 38.29 261.67 39.73Q259.62 41.17 258.09 43.54Q256.55 45.90 255.50 48.72Q254.44 51.54 253.93 54.38Q253.42 57.23 253.42 59.54Q253.42 63.50 254.57 65.23Q255.72 66.96 257.45 66.96ZM296.42 70.99Q292.97 70.99 290.15 69.52Q287.34 68.05 285.64 65.14Q283.94 62.22 283.94 57.74Q283.94 54.22 285.16 50.32Q286.38 46.42 288.81 43.02Q291.24 39.63 294.79 37.52Q298.34 35.41 303.02 35.41Q307.05 35.41 309.29 37.36Q311.53 39.31 311.53 42.77Q311.53 46.16 309.13 49.07Q306.73 51.98 302.54 53.78Q298.34 55.57 292.97 55.57L290.73 55.57Q290.66 56.27 290.63 56.94Q290.60 57.62 290.60 58.26Q290.60 62.42 292.39 64.69Q294.18 66.96 297.64 66.96Q300.71 66.96 303.11 65.49Q305.51 64.02 306.86 62.35Q307.50 62.80 307.50 63.95Q307.50 65.36 306.31 66.99Q305.13 68.62 302.70 69.81Q300.26 70.99 296.42 70.99M291.30 52.62L291.94 52.62Q295.66 52.62 298.60 51.38Q301.54 50.13 303.24 47.92Q304.94 45.71 304.94 42.77Q304.94 38.48 301.22 38.48Q299.37 38.48 297.80 39.73Q296.23 40.98 294.95 43.06Q293.67 45.14 292.74 47.63Q291.82 50.13 291.30 52.62Z"></path></svg>